<svg width="128.000000" height="48.000000" viewBox="0 0 128 48" fill="none" xmlns="http://www.w3.org/2000/svg" xmlns:xlink="http://www.w3.org/1999/xlink">
	<desc>
			Created with Pixso.
	</desc>
	<defs>
		<clipPath id="clip333_1360">
			<rect width="128.626022" height="48.000000" transform="translate(-0.707031 0.000000)" fill="white" fill-opacity="0"/>
		</clipPath>
	</defs>
	<rect width="128.626022" height="48.000000" transform="translate(-0.707031 0.000000)" fill="#FFFFFF" fill-opacity="0"/>
	<g clip-path="url(#clip333_1360)">
		<path d="M13.18 13.1L13.18 22.19L3.76 22.19L3.76 13.1L-0.71 13.1L-0.71 34.79L3.76 34.79L3.76 26L13.18 26L13.18 34.79L17.65 34.79L17.65 13.1L13.18 13.1ZM63.38 19.45C63.38 17.54 64.8 16.94 66.35 16.94C67.61 16.94 69.27 17.79 70.35 18.81L73.13 15.91C71.74 14.25 68.93 13.1 66.63 13.1C62.03 13.1 58.7 15.49 58.7 19.45C58.7 26.79 68.83 24.46 68.83 28.57C68.83 29.84 67.44 30.96 65.85 30.96C63.34 30.96 62.53 29.87 61.38 28.72L58.3 31.56C60.27 33.71 62.7 34.8 65.61 34.8C69.98 34.8 73.5 32.38 73.5 28.6C73.5 20.45 63.37 22.98 63.37 19.45L63.38 19.45ZM48.1 18.6C46 18.6 44.53 19.14 43.11 20.37L43.11 13.23L38.87 13.23L38.87 26.47C38.87 31.42 42.91 34.81 47.45 34.81C52.49 34.81 56.92 31.36 56.92 26.71C56.92 22.12 52.84 18.6 48.1 18.6L48.1 18.6ZM122.82 28.9C122.82 30.37 123.53 31.33 126.04 31.33L126.04 31.33C126.51 31.33 127.06 31.3 127.53 31.27L126.48 34.69C125.92 34.78 125.35 34.82 124.78 34.81C121.16 34.81 118.52 33.1 118.52 29.71L118.52 16.44L122.82 14.73L122.82 19.08L126.71 19.08L126.71 22.38L122.82 22.38L122.82 28.9ZM84.75 18.4C89.79 18.4 94.22 21.85 94.22 26.51L94.21 26.51C94.21 31.11 90.14 34.62 85.39 34.62C83.29 34.62 81.83 34.08 80.41 32.85L80.41 40L76.16 40L76.16 26.75C76.16 21.8 80.21 18.4 84.75 18.4ZM30.87 30.1C31.57 29.49 31.95 28.65 31.95 27.78L31.95 18.49L36.18 18.49L36.18 27.78C36.18 29.65 35.34 31.43 33.86 32.75C32.37 34.07 30.35 34.81 28.25 34.81C26.15 34.81 24.13 34.07 22.64 32.75C21.15 31.43 20.32 29.65 20.32 27.78L20.32 18.49L24.56 18.49L24.56 27.78C24.56 28.65 24.95 29.49 25.64 30.1C26.33 30.71 27.27 31.06 28.26 31.06C29.24 31.06 30.18 30.71 30.87 30.1ZM89.38 28.84C89.91 28.13 90.19 27.31 90.19 26.46C90.19 25.33 89.69 24.24 88.78 23.44C87.88 22.64 86.65 22.19 85.38 22.19C84.42 22.19 83.49 22.44 82.7 22.91C81.91 23.38 81.29 24.05 80.92 24.83C80.56 25.61 80.46 26.47 80.65 27.3C80.83 28.13 81.29 28.89 81.97 29.48C82.64 30.08 83.5 30.49 84.43 30.65C85.37 30.82 86.34 30.73 87.22 30.41C88.1 30.09 88.85 29.54 89.38 28.84ZM48.07 31.03C47.12 31.03 46.19 30.78 45.39 30.31C44.6 29.84 43.98 29.17 43.62 28.39C43.25 27.61 43.16 26.75 43.34 25.92C43.53 25.09 43.99 24.33 44.66 23.74C45.34 23.14 46.2 22.73 47.13 22.57C48.07 22.4 49.03 22.49 49.91 22.81C50.8 23.13 51.55 23.68 52.08 24.38C52.61 25.09 52.89 25.91 52.89 26.76C52.89 27.89 52.38 28.98 51.48 29.78C50.58 30.58 49.35 31.03 48.07 31.03Z" fill="#33475B" fill-opacity="1.000000" fill-rule="evenodd"/>
		<path d="M107.9 18.34L107.9 14.6C108.45 14.37 108.93 14 109.26 13.54C109.59 13.08 109.77 12.55 109.77 12L109.77 11.92C109.77 11.15 109.43 10.42 108.82 9.88C108.21 9.34 107.38 9.04 106.52 9.04L106.42 9.04C105.56 9.04 104.74 9.34 104.13 9.88C103.52 10.42 103.18 11.15 103.18 11.92L103.18 12C103.18 12.55 103.35 13.08 103.69 13.54C104.02 14 104.49 14.37 105.05 14.6L105.05 18.34C103.44 18.56 101.93 19.15 100.67 20.05L89.07 12.06C89.16 11.79 89.2 11.52 89.2 11.25C89.2 10.6 88.99 9.98 88.59 9.44C88.19 8.91 87.61 8.49 86.94 8.24C86.28 8 85.54 7.93 84.83 8.06C84.12 8.18 83.46 8.49 82.95 8.94C82.44 9.4 82.09 9.98 81.94 10.61C81.8 11.24 81.87 11.89 82.15 12.48C82.43 13.08 82.9 13.58 83.5 13.94C84.1 14.3 84.81 14.49 85.53 14.49C86.17 14.49 86.8 14.34 87.35 14.05L98.75 21.92C97.72 23.29 97.18 24.91 97.21 26.56C97.24 28.2 97.82 29.81 98.89 31.15L95.42 34.23C95.14 34.15 94.85 34.11 94.56 34.1C93.96 34.1 93.38 34.26 92.89 34.56C92.39 34.85 92 35.27 91.78 35.75C91.55 36.24 91.49 36.78 91.6 37.3C91.72 37.81 92.01 38.29 92.43 38.66C92.85 39.04 93.39 39.29 93.97 39.39C94.56 39.5 95.16 39.44 95.71 39.24C96.26 39.04 96.73 38.7 97.06 38.26C97.39 37.82 97.57 37.3 97.57 36.77C97.57 36.52 97.52 36.26 97.43 36.01L100.86 32.97C101.98 33.73 103.28 34.25 104.67 34.49C106.05 34.74 107.48 34.7 108.84 34.38C110.2 34.06 111.47 33.47 112.53 32.66C113.6 31.84 114.44 30.82 115 29.67C115.55 28.52 115.8 27.27 115.72 26.02C115.65 24.77 115.26 23.56 114.57 22.47C113.89 21.37 112.93 20.43 111.77 19.72C110.61 19.01 109.29 18.54 107.9 18.34ZM106.47 30.66C105.53 30.66 104.62 30.41 103.84 29.95C103.05 29.49 102.44 28.83 102.09 28.06C101.73 27.29 101.63 26.44 101.82 25.63C102 24.81 102.45 24.06 103.11 23.47C103.78 22.88 104.63 22.48 105.55 22.32C106.47 22.16 107.42 22.24 108.29 22.56C109.16 22.88 109.9 23.42 110.42 24.11C110.94 24.8 111.22 25.62 111.22 26.45C111.22 27.56 110.72 28.64 109.83 29.42C108.94 30.21 107.73 30.66 106.47 30.66Z" fill="#FF7A59" fill-opacity="1.000000" fill-rule="nonzero"/>
	</g>
</svg>
