<svg width="125.000000" height="48.000000" viewBox="0 0 125 48" fill="none" xmlns="http://www.w3.org/2000/svg" xmlns:xlink="http://www.w3.org/1999/xlink">
	<desc>
			Created with Pixso.
	</desc>
	<defs>
		<clipPath id="clip333_1362">
			<rect width="125.241127" height="48.000000" transform="translate(-0.720703 0.000000)" fill="white" fill-opacity="0"/>
		</clipPath>
	</defs>
	<rect width="125.241127" height="48.000000" transform="translate(-0.720703 0.000000)" fill="#FFFFFF" fill-opacity="0"/>
	<g clip-path="url(#clip333_1362)">
		<path d="M16.5 38.06C14.61 38.35 12.69 38.44 10.71 38.68L4.66 22.97L4.66 39.35C2.78 39.53 1.06 39.76 -0.73 40L-0.73 10L4.3 10L11.17 27.02L11.17 10L16.5 10L16.5 38.06ZM26.91 20.98C28.96 20.98 32.1 20.89 33.98 20.89L33.98 25.58C31.64 25.58 28.89 25.58 26.91 25.67L26.91 32.64C30.02 32.47 33.12 32.23 36.26 32.14L36.26 36.65L21.62 37.68L21.62 10L36.26 10L36.26 14.68L26.91 14.68L26.91 20.98ZM55.93 14.68L50.44 14.68L50.44 36.25C48.66 36.25 46.87 36.25 45.16 36.3L45.16 14.68L39.67 14.68L39.67 10L55.93 10L55.93 14.68ZM64.53 20.66L71.76 20.66L71.76 25.35L64.53 25.35L64.53 35.98L59.34 35.98L59.34 10L74.11 10L74.11 14.68L64.53 14.68L64.53 20.66ZM82.71 31.88C85.72 31.94 88.75 32.14 91.7 32.29L91.7 36.92C86.97 36.66 82.24 36.39 77.42 36.3L77.42 10L82.71 10L82.71 31.88ZM96.16 37.24C97.85 37.33 99.63 37.42 101.35 37.59L101.35 10L96.16 10L96.16 37.24ZM124.52 10L117.81 24.26L124.52 40C122.54 39.76 120.56 39.44 118.57 39.15L114.77 30.47L110.9 38.44C108.99 38.15 107.14 38.06 105.22 37.83L112.03 24.09L105.88 10L111.56 10L115.03 17.88L118.74 10L124.52 10L124.52 10Z" fill="#D81F26" fill-opacity="1.000000" fill-rule="nonzero"/>
	</g>
</svg>
