<svg width="110.000000" height="48.000000" viewBox="0 0 110 48" fill="none" xmlns="http://www.w3.org/2000/svg" xmlns:xlink="http://www.w3.org/1999/xlink">
	<desc>
			Created with Pixso.
	</desc>
	<defs>
		<clipPath id="clip333_1363">
			<rect width="110.573250" height="48.000000" transform="translate(-0.574219 0.000000)" fill="white" fill-opacity="0"/>
		</clipPath>
	</defs>
	<rect width="110.573250" height="48.000000" transform="translate(-0.574219 0.000000)" fill="#FFFFFF" fill-opacity="0"/>
	<g clip-path="url(#clip333_1363)">
		<path d="M89.35 20.59C89.78 21.24 89.91 21.97 89.96 22.8L90.02 23.9L90.02 31.6L90.08 32.7C90.2 34.5 91.7 35.83 93.75 35.94L94.98 36L94.98 23.9L95.05 22.8C95.1 21.98 95.23 21.23 95.66 20.58C96.1 19.92 96.73 19.36 97.48 18.98C98.24 18.59 99.09 18.39 99.96 18.39C100.83 18.4 101.68 18.6 102.44 18.99C103.19 19.37 103.82 19.93 104.25 20.6C104.67 21.24 104.8 21.99 104.85 22.8L104.92 23.9L104.92 31.6L104.98 32.7C105.1 34.51 106.59 35.84 108.64 35.94L109.88 36L109.88 22.8C109.88 20.46 108.83 18.23 106.97 16.58C105.11 14.93 102.59 14 99.95 14C98.54 14 97.15 14.26 95.87 14.78C94.58 15.29 93.44 16.04 92.5 16.98C91.58 16.04 90.43 15.29 89.14 14.78C87.86 14.26 86.47 14 85.06 14C83 14 81.08 14.55 79.5 15.51C78.53 14.55 76.37 14 75.13 14L75.13 36L76.37 35.94C78.45 35.82 79.95 34.52 80.03 32.7L80.09 31.6L80.09 23.9L80.16 22.8C80.21 21.97 80.34 21.24 80.76 20.59C81.2 19.92 81.83 19.37 82.58 18.98C83.33 18.6 84.19 18.4 85.06 18.4C85.93 18.4 86.78 18.6 87.54 18.98C88.29 19.37 88.92 19.92 89.35 20.59ZM4.38 35.94L5.63 36L24.24 36L24.18 34.9C24.01 33.09 22.57 31.77 20.52 31.65L19.28 31.6L8.11 31.6L23 18.39L22.94 17.3C22.84 15.47 21.34 14.15 19.28 14.05L18.04 14L-0.58 14L-0.52 15.1C-0.35 16.89 1.11 18.24 3.14 18.34L4.38 18.4L15.55 18.4L0.66 31.6L0.72 32.7C0.85 34.51 2.32 35.82 4.38 35.94L4.38 35.94ZM70.25 17.22C71.41 18.24 72.32 19.45 72.94 20.79C73.57 22.12 73.89 23.55 73.89 24.99C73.89 26.44 73.57 27.87 72.94 29.2C72.32 30.54 71.41 31.75 70.25 32.77C67.92 34.83 64.77 35.99 61.48 35.99C58.18 35.99 55.03 34.83 52.7 32.77C47.85 28.48 47.85 21.51 52.7 17.22C53.85 16.2 55.22 15.39 56.72 14.83C58.23 14.28 59.84 14 61.47 14C63.1 13.99 64.72 14.28 66.22 14.83C67.73 15.38 69.1 16.19 70.25 17.22L70.25 17.22ZM66.74 20.33C68.14 21.57 68.92 23.25 68.92 25C68.92 26.75 68.14 28.43 66.74 29.67C65.34 30.9 63.45 31.6 61.48 31.6C59.5 31.6 57.61 30.9 56.21 29.67C54.81 28.43 54.03 26.75 54.03 25C54.03 23.25 54.81 21.57 56.21 20.33C57.61 19.09 59.5 18.4 61.48 18.4C63.45 18.4 65.34 19.09 66.74 20.33ZM35.42 14C37.05 14 38.66 14.28 40.17 14.83C41.67 15.39 43.04 16.2 44.19 17.22C49.04 21.51 49.04 28.48 44.19 32.77C41.86 34.83 38.7 35.99 35.41 35.99C32.12 35.99 28.96 34.83 26.63 32.77C21.79 28.48 21.79 21.51 26.63 17.22C27.79 16.2 29.15 15.39 30.66 14.83C32.16 14.28 33.78 14 35.41 14L35.42 14ZM40.68 20.33C42.08 21.57 42.86 23.25 42.86 25C42.86 26.75 42.08 28.43 40.68 29.66C39.28 30.9 37.39 31.6 35.41 31.6C33.44 31.6 31.54 30.9 30.15 29.66C28.75 28.43 27.97 26.75 27.97 25C27.97 23.25 28.75 21.57 30.15 20.33C31.54 19.09 33.44 18.4 35.41 18.4C37.39 18.4 39.28 19.09 40.68 20.33L40.68 20.33Z" fill="#2D8CFF" fill-opacity="1.000000" fill-rule="evenodd"/>
	</g>
</svg>
