<svg width="20.000000" height="18.000000" viewBox="0 0 20 18" fill="none" xmlns="http://www.w3.org/2000/svg" xmlns:xlink="http://www.w3.org/1999/xlink">
	<desc>
			Created with Pixso.
	</desc>
	<defs/>
	<path d="M1.75 15.27L1.75 15.29C1.02 15.71 0.12 15.47 -0.3 14.75C-0.72 14.02 -0.48 13.12 0.25 12.7L0.27 12.7L1.75 15.27ZM16.48 5.06L6.34 2.34C5.52 2.12 5.06 1.31 5.28 0.5C5.49 -0.31 6.3 -0.78 7.11 -0.56L18.7 2.55C19.51 2.76 19.98 3.57 19.76 4.38L16.66 15.97C16.44 16.79 15.63 17.25 14.82 17.04C14.01 16.82 13.54 16.01 13.76 15.2L16.48 5.06Z" fill="#191A23" fill-opacity="1.000000" fill-rule="nonzero"/>
	<path d="M14.43 4.51L6.34 2.34C5.52 2.12 5.06 1.31 5.28 0.5C5.49 -0.31 6.3 -0.78 7.11 -0.56L18.7 2.55C19.51 2.76 19.98 3.57 19.76 4.38L16.66 15.97C16.44 16.79 15.63 17.25 14.82 17.04C14.01 16.82 13.54 16.01 13.76 15.2L15.93 7.1L1.75 15.29C1.02 15.71 0.12 15.47 -0.3 14.75C-0.72 14.02 -0.48 13.12 0.25 12.7L14.43 4.51Z" fill="#B9FF66" fill-opacity="1.000000" fill-rule="evenodd"/>
</svg>
