<svg width="17.000000" height="15.000000" viewBox="0 0 17 15" fill="none" xmlns="http://www.w3.org/2000/svg" xmlns:xlink="http://www.w3.org/1999/xlink">
	<path d="M14.99 3.49C15.68 2.97 16.3 2.35 16.78 1.62C16.16 1.9 15.44 2.11 14.72 2.18C15.47 1.73 16.02 1.04 16.3 0.18C15.61 0.59 14.82 0.9 14.03 1.07C13.34 0.35 12.41 -0.06 11.37 -0.06C9.37 -0.06 7.75 1.56 7.75 3.56C7.75 3.83 7.79 4.11 7.86 4.38C4.86 4.21 2.17 2.76 0.38 0.59C0.07 1.11 -0.1 1.73 -0.1 2.42C-0.1 3.66 0.51 4.76 1.51 5.42C0.93 5.38 0.34 5.24 -0.14 4.97L-0.14 5C-0.14 6.76 1.1 8.21 2.75 8.55C2.48 8.62 2.14 8.69 1.83 8.69C1.58 8.69 1.38 8.66 1.14 8.62C1.58 10.07 2.93 11.1 4.51 11.14C3.27 12.1 1.72 12.69 0.03 12.69C-0.28 12.69 -0.55 12.66 -0.83 12.62C0.76 13.65 2.65 14.24 4.72 14.24C11.37 14.24 14.99 8.76 14.99 3.97C14.99 3.8 14.99 3.66 14.99 3.49Z" fill="#000000" fill-opacity="1.000000" fill-rule="nonzero"/>
</svg>
