<svg width="692.000000" height="648.000000" viewBox="0 0 692 648" fill="none" xmlns="http://www.w3.org/2000/svg" xmlns:xlink="http://www.w3.org/1999/xlink">
	<desc>
			Created with Pixso.
	</desc>
	<defs/>
	<mask id="mask341_594" mask-type="alpha" maskUnits="userSpaceOnUse" x="41.710938" y="-0.500000" width="649.859375" height="648.000000">
		<path d="M387.91 154.39L388.06 -0.5L386.07 -0.63L366.64 153.09L347.2 -0.63L345.21 -0.5L345.21 154.42L306.64 4.35L304.68 4.73L324.26 158.4L267.18 14.28L265.28 14.9L303.85 165.12L229.15 29.16L227.34 30.01L284.58 174.15L193.33 48.67L191.65 49.74L266.51 185.7L160.21 72.65L158.68 73.93L249.92 199.25L130.44 100.48L129.07 101.93L235.35 214.82L104.32 131.82L103.15 133.44L222.79 232.22L82.35 166.21L81.39 167.96L212.41 250.95L64.84 203.01L64.1 204.86L204.54 270.86L52.11 241.73L51.61 243.67L199.18 291.61L44.32 281.75L44.07 283.73L196.5 312.71L41.64 322.42L41.64 324.41L196.5 334.12L44.07 363.1L44.32 365.08L199.18 355.37L51.61 403.17L52.11 405.1L204.57 376.11L64.1 442.13L64.84 443.98L212.41 396.04L81.39 479.03L82.35 480.78L222.79 414.77L103.15 513.55L104.32 515.17L235.35 432.02L129.07 545.06L130.44 546.51L249.92 447.59L158.68 573.06L160.21 574.34L266.5 461.3L191.65 597.09L193.33 598.16L284.58 472.68L227.34 616.82L229.15 617.68L303.85 481.87L265.28 631.94L267.18 632.55L324.26 488.42L304.68 642.27L306.64 642.64L345.21 492.42L345.21 647.5L347.2 647.62L366.64 493.75L386.07 647.62L388.06 647.49L387.91 492.45L426.47 642.64L428.43 642.27L409 488.4L466.09 632.55L467.99 631.94L429.42 481.87L504.13 617.68L505.93 616.82L448.69 472.68L539.94 598.16L541.63 597.09L466.79 461.32L572.9 574.34L574.44 573.06L483.33 447.57L602.83 546.51L604.2 545.06L497.92 432.02L628.95 515.17L630.12 513.55L510.48 414.77L650.92 480.78L651.88 479.03L520.86 396.04L668.43 443.98L669.17 442.13L528.71 376.11L681.17 405.1L681.66 403.17L534.09 355.37L688.95 365.08L689.2 363.1L536.77 334.12L691.63 324.41L691.63 322.42L536.77 312.71L689.2 283.73L688.95 281.75L534.09 291.61L681.66 243.67L681.16 241.73L528.74 270.86L669.17 204.86L668.43 203.01L520.86 250.95L651.88 167.96L650.92 166.21L510.48 232.22L630.12 133.44L628.95 131.82L497.92 214.82L604.2 101.93L602.83 100.48L483.33 199.27L574.44 73.93L572.9 72.65L466.78 185.68L541.63 49.74L539.94 48.67L448.69 174.15L505.93 30.01L504.13 29.16L429.42 165.12L467.99 14.9L466.09 14.28L409 158.43L428.43 4.72L426.47 4.35L387.91 154.39ZM387.91 158.43L386.9 162.33L386.91 158.3L387.06 7.53L387.06 -0.5L386.06 7.47L367.14 157.07L366.64 161.06L366.13 157.07L347.21 7.4L346.21 -0.5L346.21 162.33L345.21 158.44L307.67 12.38L305.67 4.6L306.69 12.57L325.75 162.16L326.26 166.16L324.77 162.41L269.19 22.06L266.25 14.65L268.24 22.37L305.79 168.64L306.79 172.54L304.85 169.01L232.15 36.7L228.27 29.64L231.24 37.13L286.95 177.41L288.44 181.15L286.07 177.89L197.22 55.72L192.52 49.26L196.38 56.26L269.26 188.63L271.2 192.16L268.44 189.23L164.97 79.17L159.49 73.34L164.2 79.81L253.03 201.82L255.4 205.08L252.29 202.51L136 106.37L129.8 101.25L241.52 219.91L238.11 217.75L110.53 136.94L103.79 132.67L109.95 137.75L226.44 233.93L229.55 236.49L225.9 234.78L81.92 167.12L88.68 171.4L216.24 252.2L219.65 254.36L215.82 253.11L72.14 206.43L64.53 203.96L71.78 207.37L208.5 271.62L212.15 273.34L208.19 272.58L59.78 244.22L51.92 242.72L59.53 245.19L203.21 291.87L207.04 293.11L203.02 292.86L52.31 283.26L44.26 282.75L52.18 284.25L200.53 312.46L204.49 313.21L200.46 313.46L49.7 322.91L41.71 323.42L49.7 323.92L200.46 333.37L204.49 333.62L200.53 334.38L52.12 362.59L44.26 364.09L52.25 363.58L203.02 354.13L207.04 353.88L203.21 355.12L59.53 401.65L51.92 404.12L59.78 402.62L208.2 374.41L212.15 373.65L208.51 375.36L71.78 439.63L64.53 443.03L72.14 440.56L215.82 393.88L219.65 392.63L216.24 394.79L88.68 475.59L81.92 479.87L89.16 476.47L225.9 412.21L229.55 410.5L226.44 413.06L109.99 509.2L103.79 514.32L110.58 510.02L238.11 429.08L241.52 426.92L238.76 429.86L135.31 539.88L129.8 545.74L136 540.61L252.29 444.33L255.4 441.76L253.03 445.02L164.17 567.21L159.49 573.65L164.94 567.85L268.44 457.77L271.2 454.83L269.26 458.36L196.39 590.55L192.52 597.58L197.24 591.09L286.07 468.94L288.44 465.68L286.95 469.43L231.23 609.73L228.27 617.19L232.14 610.16L304.85 477.97L306.79 474.45L305.79 478.35L268.24 624.45L266.25 632.18L269.19 624.76L324.77 484.42L326.26 480.67L325.75 484.67L306.69 634.42L305.67 642.39L307.67 634.6L345.21 488.39L346.21 484.5L346.21 647.5L347.21 639.58L366.13 489.76L366.64 485.77L367.14 489.76L386.06 639.52L387.06 647.5L387.06 639.45L386.91 488.54L386.9 484.5L387.91 488.41L425.46 634.66L427.44 642.39L426.44 634.48L407.52 484.66L407.01 480.67L408.49 484.41L464.08 624.76L467.02 632.18L465.03 624.45L427.48 478.35L426.48 474.45L428.42 477.97L501.13 610.16L505 617.19L502.04 609.73L446.32 469.43L444.84 465.68L447.21 468.94L536.03 591.09L540.75 597.58L536.88 590.55L464.02 458.37L462.07 454.83L464.84 457.78L568.18 567.85L573.63 573.65L568.95 567.21L480.23 445.01L477.87 441.76L480.97 444.32L597.28 540.61L603.47 545.74L597.96 539.88L494.52 429.86L491.76 426.92L495.16 429.08L622.7 510.02L629.48 514.32L623.28 509.2L506.83 413.06L503.73 410.5L507.37 412.21L644.11 476.47L651.35 479.87L644.59 475.59L517.03 394.79L513.62 392.63L517.46 393.88L661.13 440.56L668.74 443.03L661.5 439.63L524.76 375.36L521.12 373.65L525.07 374.4L673.49 402.62L681.35 404.12L673.74 401.65L530.07 355.12L526.23 353.88L530.25 354.13L681.02 363.58L689.01 364.09L681.15 362.59L532.75 334.38L528.78 333.62L532.81 333.37L683.58 323.92L691.57 323.42L683.58 322.91L532.81 313.46L528.78 313.21L532.75 312.46L681.09 284.25L689.01 282.75L680.96 283.26L530.25 292.86L526.23 293.11L530.06 291.87L673.74 245.19L681.35 242.72L673.49 244.22L525.08 272.58L521.12 273.34L524.77 271.62L661.5 207.37L668.74 203.96L661.13 206.43L517.46 253.11L513.62 254.36L517.03 252.2L644.59 171.4L651.35 167.12L644.11 170.52L507.37 234.78L503.73 236.49L506.83 233.93L623.33 137.75L629.48 132.67L622.74 136.94L495.16 217.75L491.76 219.91L494.52 216.98L597.96 107.1L603.47 101.25L597.28 106.37L480.97 202.52L477.87 205.08L480.23 201.82L568.93 79.81L573.63 73.34L568.15 79.17L464.83 189.22L462.07 192.16L464.02 188.62L536.9 56.26L540.75 49.26L536.05 55.72L447.21 177.89L444.84 181.15L446.32 177.41L502.03 37.13L505 29.64L501.12 36.7L428.42 169.01L426.48 172.54L427.48 168.64L465.04 22.37L467.02 14.65L464.09 22.06L408.49 162.42L407.01 166.16L407.52 162.17L426.44 12.51L427.44 4.6L425.46 12.32L387.91 158.43Z" fill="#000000" fill-opacity="1.000000" fill-rule="evenodd"/>
	</mask>
	<g mask="url(#mask341_594)">
		<rect x="-785.720703" y="-38.617188" rx="45.000000" width="1152.826538" height="702.852234" fill="#000000" fill-opacity="1.000000"/>
	</g>
	<path d="M95.71 469.59L141.42 494.5L95.71 519.6L70.71 565.21L45.7 519.6L0 494.5L45.7 469.59L70.71 423.78L95.71 469.59Z" fill="#B9FF66" fill-opacity="1.000000" fill-rule="nonzero"/>
	<path d="M217.1 243.06L298.77 287.56L217.1 332.42L172.42 413.92L127.74 332.42L46.06 287.56L127.74 243.06L172.42 161.21L217.1 243.06Z" fill="#191A23" fill-opacity="1.000000" fill-rule="nonzero"/>
</svg>
