<svg width="126.000000" height="48.000000" viewBox="0 0 126 48" fill="none" xmlns="http://www.w3.org/2000/svg" xmlns:xlink="http://www.w3.org/1999/xlink">
	<desc>
			Created with Pixso.
	</desc>
	<defs>
		<clipPath id="clip333_1359">
			<rect width="126.369431" height="48.000000" transform="translate(-0.982422 0.000000)" fill="white" fill-opacity="0"/>
		</clipPath>
	</defs>
	<rect width="126.369431" height="48.000000" transform="translate(-0.982422 0.000000)" fill="#FFFFFF" fill-opacity="0"/>
	<g clip-path="url(#clip333_1359)">
		<path d="M124.59 30.56C119.33 38.46 111.01 36.16 108.51 34.37C107.44 35.01 105.58 36.41 103.09 36.25C97.79 35.91 95.9 29.2 95.9 29.2C95.93 29.22 94.32 29.69 93.44 29.68C93.43 31.65 91.51 36.35 86.33 36.29C80.52 36.22 79.34 28.55 79.34 28.55C79.34 28.55 78.76 29.26 76.56 29.97C76.67 28.46 76.59 36.06 69.63 36.17C64.12 36.26 62.63 28.43 62.63 28.43C62.63 28.43 61.68 29.31 59.83 29.61C59.94 28.08 59.75 36.2 52.79 36.17C48.08 36.15 46.47 31.35 46.59 30.68C46.75 29.83 45 36.29 40.43 36.19C38.54 36.14 37.14 34.93 36.25 33.32C35.07 34.51 33.35 36.19 31.43 36.19C27.98 36.19 26.45 33.63 26.71 26.31C26.73 25.45 26.66 25.1 25.69 24.97C25.1 24.89 24.5 24.72 23.87 24.64C23.67 25.24 21.95 36 16.03 36.2C14.05 36.27 12.96 34.74 12.07 33.61C10.7 35.21 8.9 36.25 6.33 36.25C1.98 36.25 -0.99 33.13 -0.99 29.28C-0.99 25.44 1.98 22.32 6.33 22.32C7.1 22.32 7.32 22.42 8.02 22.6C6.57 10.93 9.99 9.11 12.98 9.11C15.84 9.11 20.74 15.01 13.85 29.97C15.38 34.43 18.68 34.18 20.26 24.99C20.59 23.13 19.72 20.61 21.07 20.25C23.52 19.61 23.78 21.54 24.93 21.86C26.15 22.2 26.86 22.17 28.02 22.38C30.02 22.73 30.8 23.68 30.55 25.79C30.26 28.47 29.75 32.37 31.31 32.84C32.43 33.19 34.48 31.12 34.84 30C35.2 28.87 35.28 28.48 35.31 27.65C35.36 25.88 35.42 24.58 35.76 23.25C35.9 22.73 36.07 22.38 36.73 22.36C37.28 22.35 38.27 22.2 38.71 22.51C39.29 22.89 39.22 23.29 39.15 24.33C38.47 39.13 43.7 31.74 45.26 25.82C44.7 19.13 45.08 9.23 49.82 9.06C52.27 8.98 53.36 10.73 53.48 12.03C53.82 15.71 51.92 21.81 49.43 25.91C48.01 34.29 55.66 35.94 56.89 29.26C54.88 28.42 52.72 25 54.48 23.33C55.47 22.4 59.58 23.74 59.65 26.67C61.67 26.19 61.94 25.18 61.97 25.35C61.41 18.66 61.92 9.23 66.66 9.06C69.12 8.98 70.2 10.73 70.32 12.03C70.66 15.71 68.77 21.81 66.27 25.91C64.85 34.29 72.5 35.94 73.73 29.26C72.24 29.01 69.11 25.37 70.92 23.33C71.89 22.25 75.98 24.51 76.44 26.77C78.38 26.28 78.64 25.3 78.67 25.47C78.12 18.78 78.63 9.35 83.36 9.18C85.82 9.1 86.91 10.84 87.03 12.15C87.37 15.83 85.47 21.93 82.98 26.03C81.56 34.4 89.21 36.06 90.43 29.38C88.4 29.08 85.5 25.24 87.83 23.28C88.76 22.49 92.32 24.53 93.15 26.85C94.31 26.81 95.03 26.46 95.18 26.42C93.34 18.57 94.71 9.14 99.8 9.06C102.55 9.02 105.24 10.38 104.06 17.86C102.93 24.99 98.89 27.98 98.9 28.02C99.13 28.88 101.21 36.03 106.44 32.25C106.17 31.71 105.9 31.16 105.75 30.48C104.88 26.56 106.59 22.14 111.22 21.42C113.87 21.01 116.37 22.15 116.77 24.74C117.42 28.96 113.11 32.02 111.48 32.68C110.74 32.31 118.12 36.51 122.5 28.1C122.75 27.62 123.06 27.66 123.45 27.91C123.73 28.09 125.33 29.42 124.59 30.56ZM9.5 28.25C9.27 27.66 8.82 26.36 8.66 25.79C7.76 25.11 7.13 25 5.99 25C3.45 25 1.95 27.08 1.95 29.32C1.95 31.56 3.58 33.64 6.12 33.64C8.32 33.64 10 32.32 10.51 30.44C10.15 29.71 9.8 29.04 9.5 28.25ZM12.91 12.2C11.13 12.2 10.52 15.97 10.64 19.19C10.75 22.03 11.64 24.54 12.11 25.66C12.23 25.8 12.2 25.71 12.31 25.86C15.41 19.84 14.12 12.2 12.91 12.2ZM50.07 12.31C47.76 12.08 47.78 20.6 48.07 22.51C49.26 20.81 51.34 12.77 50.07 12.31ZM66.91 12.31C64.6 12.08 64.62 20.6 64.91 22.51C66.1 20.81 68.18 12.77 66.91 12.31ZM83.62 12.43C81.31 12.2 81.33 20.71 81.61 22.62C82.81 20.93 84.89 12.89 83.62 12.43ZM100.06 11.82C96.46 12.46 97.3 23.07 97.85 24.94C102.08 19.78 102.17 11.62 100.06 11.82ZM113.52 25.09C113.34 24.41 112.43 24.05 111.8 24.14C109.99 24.35 108.24 26.35 108.92 29.38C109.07 30.05 109.45 30.67 109.44 30.65C113.48 28.25 113.82 26.36 113.52 25.09ZM37.44 20.02C36.92 20.02 36.42 19.88 35.99 19.63C35.56 19.37 35.23 19.01 35.03 18.59C34.83 18.17 34.78 17.7 34.88 17.26C34.98 16.81 35.23 16.4 35.59 16.07C35.96 15.75 36.42 15.53 36.93 15.44C37.43 15.35 37.96 15.4 38.44 15.57C38.91 15.75 39.32 16.04 39.61 16.42C39.89 16.8 40.05 17.25 40.05 17.71C40.05 18.01 39.98 18.31 39.85 18.59C39.72 18.87 39.52 19.13 39.28 19.34C39.04 19.55 38.75 19.73 38.44 19.84C38.12 19.96 37.78 20.02 37.44 20.02Z" fill="#0D0C22" fill-opacity="1.000000" fill-rule="evenodd"/>
	</g>
</svg>
