<svg width="600.000000" height="515.000000" viewBox="0 0 600 515" fill="none" xmlns="http://www.w3.org/2000/svg" xmlns:xlink="http://www.w3.org/1999/xlink">
	<desc>
			Created with Pixso.
	</desc>
	<defs>
		<clipPath id="clip332_1229">
			<rect width="36.000000" height="36.000000" transform="translate(292.537109 427.000000)" fill="white" fill-opacity="0"/>
		</clipPath>
		<clipPath id="clip332_1231">
			<rect width="70.325882" height="70.325882" transform="translate(107.265625 313.000000) rotate(45.000000)" fill="white" fill-opacity="0"/>
		</clipPath>
	</defs>
	<rect width="36.000000" height="36.000000" transform="translate(292.537109 427.000000)" fill="#FFFFFF" fill-opacity="0"/>
	<g clip-path="url(#clip332_1229)">
		<path d="M310.53 432.53L328.13 427.34L323 445L328.13 462.6L310.53 457.46L292.88 462.6L298.07 445L292.88 427.34L310.53 432.53Z" fill="#000000" fill-opacity="1.000000" fill-rule="nonzero"/>
		<path d="M328.13 427.34L323 445L328.13 462.6L310.53 457.46L292.88 462.6L298.07 445L292.88 427.34L310.53 432.53L328.13 427.34Z" stroke="#FFFFFF" stroke-opacity="1.000000" stroke-width="1.000000"/>
	</g>
	<rect width="70.325882" height="70.325882" transform="translate(107.265625 313.000000) rotate(45.000000)" fill="#FFFFFF" fill-opacity="0"/>
	<g clip-path="url(#clip332_1231)">
		<path d="M124.48 345.5L155.96 362.65L124.48 379.94L107.26 411.35L90.04 379.94L58.57 362.65L90.04 345.5L107.26 313.96L124.48 345.5Z" fill="#000000" fill-opacity="1.000000" fill-rule="nonzero"/>
		<path d="M155.96 362.65L124.48 379.94L107.26 411.35L90.04 379.94L58.57 362.65L90.04 345.5L107.26 313.96L124.48 345.5L155.96 362.65Z" stroke="#FFFFFF" stroke-opacity="1.000000" stroke-width="1.000000"/>
	</g>
	<ellipse rx="282.630463" ry="58.974152" transform="matrix(0.875627 0.482989 -0.482989 0.875627 316.639 252.826)" stroke="#000000" stroke-opacity="1.000000" stroke-width="1.000000"/>
	<ellipse rx="282.630463" ry="58.974152" transform="matrix(0.875627 0.482989 -0.482989 0.875627 296.408 289.5)" stroke="#000000" stroke-opacity="1.000000" stroke-width="1.000000"/>
	<ellipse rx="282.630463" ry="58.974152" transform="matrix(0.875627 0.482989 -0.482989 0.875627 276.18 326.174)" stroke="#000000" stroke-opacity="1.000000" stroke-width="1.000000"/>
	<circle cx="131.037109" cy="104.500000" r="15.500000" fill="#B9FF66" fill-opacity="1.000000"/>
	<circle cx="420.537109" cy="435.000000" r="10.000000" fill="#B9FF66" fill-opacity="1.000000"/>
	<circle cx="81.037109" cy="64.500000" r="23.500000" fill="#000000" fill-opacity="1.000000"/>
	<path d="M305.51 383.59C299.2 385.74 292 381.47 289.49 374.07L250.49 259.81L273.28 252.01L312.32 366.43C314.82 373.75 311.77 381.43 305.51 383.59Z" fill="#000000" fill-opacity="1.000000" fill-rule="nonzero"/>
	<path d="M302.1 385C300.26 385 298.38 384.56 296.58 383.66C292.93 381.86 290.04 378.49 288.63 374.34L249.63 260.08C249.47 259.65 249.71 259.14 250.18 258.98L272.97 251.19C273.2 251.11 273.44 251.11 273.63 251.23C273.83 251.34 273.98 251.5 274.06 251.74L313.1 366.15C315.72 373.91 312.43 382.1 305.74 384.41C304.6 384.8 303.35 385 302.1 385ZM251.59 260.35L290.31 373.79C291.57 377.51 294.15 380.57 297.36 382.14C299.94 383.39 302.72 383.62 305.23 382.76C311.02 380.77 313.85 373.56 311.5 366.7L272.73 253.11L251.59 260.35Z" fill="#000000" fill-opacity="1.000000" fill-rule="nonzero"/>
	<path d="M269.25 153.38L195.52 205.98L166.82 235.79L155.54 255.73L155.5 255.89C153.27 259.33 154.56 267.29 158.75 275.39C162.86 283.39 168.66 288.95 172.73 289.26L172.61 289.34L194.26 291.69L234.79 285.23L320.81 254.44L427.75 272.77L428.49 272.81C401.63 267.79 365.37 231.88 339.02 181.07C312.71 130.31 304.33 80.13 315.88 55.37L315.84 55.37L269.83 152.12L269.25 153.38Z" fill="#B9FF66" fill-opacity="1.000000" fill-rule="nonzero"/>
	<path d="M434.85 131.57C467.58 194.62 472.69 256.87 446.26 270.6C419.83 284.33 371.88 244.34 339.15 181.29C306.41 118.24 301.3 56 327.73 42.27C354.16 28.54 402.12 68.52 434.85 131.57Z" fill="#FFFFFF" fill-opacity="1.000000" fill-rule="evenodd"/>
	<path d="M434.64 274.18C423.13 274.18 409.27 267.76 394.35 255.26C374.03 238.26 354.1 212.06 338.24 181.42C314.24 135.05 304.33 87.49 313.02 60.27C315.92 51.18 320.77 44.83 327.39 41.43C340.55 34.69 359.07 40.41 379.59 57.56C399.91 74.56 419.84 100.77 435.7 131.4C459.74 177.78 469.64 225.33 460.91 252.56C458.02 261.65 453.16 267.99 446.54 271.4C442.98 273.28 438.99 274.18 434.64 274.18ZM339.37 40.41C335.34 40.41 331.58 41.23 328.21 42.99C321.99 46.17 317.45 52.2 314.71 60.86C306.13 87.69 316 134.73 339.8 180.72C372.23 243.27 419.76 283.31 445.8 269.95C452.02 266.78 456.57 260.75 459.31 252.09C467.88 225.26 458.02 178.21 434.21 132.22C405.98 77.78 366.35 40.41 339.37 40.41Z" fill="#000000" fill-opacity="1.000000" fill-rule="nonzero"/>
	<path d="M434.64 274.18C423.13 274.18 409.27 267.76 394.35 255.26C374.03 238.26 354.1 212.06 338.24 181.42C314.24 135.05 304.33 87.49 313.02 60.27C315.92 51.18 320.77 44.83 327.39 41.43C336.2 36.88 347.71 38.02 360.68 44.68C373.09 51.06 386.52 62.38 399.6 77.39C399.91 77.74 399.87 78.29 399.52 78.6C399.16 78.91 398.62 78.87 398.3 78.52C371.76 48.05 344.89 34.41 328.21 42.99C321.99 46.17 317.45 52.2 314.71 60.85C306.13 87.69 316 134.73 339.8 180.72C368 235.13 407.66 272.54 434.6 272.54C438.63 272.54 442.39 271.71 445.76 269.95C451.98 266.78 456.53 260.75 459.27 252.09C467.84 225.26 457.98 178.21 434.17 132.22C427.08 118.52 419.09 105.63 410.52 93.92C410.25 93.52 410.32 92.98 410.71 92.7C411.11 92.43 411.65 92.51 411.93 92.9C420.58 104.69 428.57 117.65 435.74 131.44C459.74 177.78 469.64 225.33 460.91 252.56C458.02 261.65 453.16 267.99 446.54 271.4C442.98 273.28 438.99 274.18 434.64 274.18Z" fill="#000000" fill-opacity="1.000000" fill-rule="nonzero"/>
	<path d="M383.67 158.15C391.24 172.75 392.42 187.15 386.3 190.33C380.18 193.52 369.07 184.26 361.5 169.67C353.92 155.08 352.75 140.67 358.87 137.49C364.99 134.31 376.09 143.56 383.67 158.15Z" fill="#B9FF66" fill-opacity="1.000000" fill-rule="evenodd"/>
	<path d="M383.62 191.84C376.88 191.84 367.49 183.15 360.71 170.03C355.08 159.14 352.77 147.93 354.84 141.47C355.58 139.2 356.8 137.59 358.48 136.73C365.14 133.32 376.53 142.61 384.44 157.84C390.08 168.73 392.39 179.94 390.32 186.4C389.57 188.67 388.36 190.28 386.67 191.14C385.73 191.61 384.72 191.84 383.62 191.84ZM361.54 137.71C360.71 137.71 359.93 137.87 359.27 138.22C357.97 138.88 357.03 140.14 356.45 141.98C354.53 148.01 356.76 158.74 362.2 169.24C369.41 183.15 380.25 192.51 385.85 189.61C387.14 188.94 388.08 187.69 388.67 185.85C390.59 179.78 388.32 169.08 382.92 158.59C376.57 146.41 367.49 137.71 361.54 137.71Z" fill="#B9FF66" fill-opacity="1.000000" fill-rule="nonzero"/>
	<path d="M428.69 259.57C418.59 259.57 406.45 253.93 393.37 243C375.59 228.12 358.13 205.16 344.27 178.37C323.24 137.79 314.59 96.15 322.18 72.29C324.73 64.3 329 58.74 334.83 55.72C348.22 48.87 367.92 56.78 388.91 77.42C389.26 77.78 389.26 78.29 388.91 78.64C388.55 78.99 388.04 78.99 387.69 78.64C367.25 58.54 348.26 50.71 335.61 57.25C330.21 60.03 326.26 65.24 323.83 72.8C316.35 96.23 324.96 137.36 345.8 177.58C370.43 225.18 405.08 257.85 428.65 257.85C432.17 257.85 435.42 257.1 438.4 255.61C443.8 252.83 447.76 247.62 450.18 240.06C457.66 216.64 449.05 175.51 428.22 135.28C421.91 123.14 414.86 111.74 407.27 101.44C407 101.04 407.07 100.5 407.46 100.22C407.86 99.95 408.41 100.03 408.68 100.42C416.35 110.84 423.44 122.28 429.78 134.5C450.81 175.08 459.46 216.72 451.87 240.57C449.32 248.56 445.05 254.12 439.22 257.14C436.01 258.75 432.49 259.57 428.69 259.57Z" fill="#000000" fill-opacity="1.000000" fill-rule="nonzero"/>
	<path d="M194.3 292.51C194.27 292.51 194.23 292.51 194.23 292.51L172.57 290.16C172.45 290.16 172.34 290.12 172.22 290.04C167.76 289.34 162.12 283.7 158.01 275.79C153.62 267.44 152.33 259.29 154.72 255.46L154.76 255.34L166.03 235.36C166.07 235.28 166.11 235.25 166.15 235.21L194.85 205.4C194.89 205.36 194.93 205.32 194.97 205.28L268.5 152.79L315.02 54.98C315.14 54.78 315.29 54.63 315.53 54.55C315.76 54.47 316 54.47 316.19 54.59C316.62 54.78 316.82 55.29 316.62 55.72C304.84 80.99 314.16 131.21 339.77 180.64C365.41 230.15 401.16 266.82 428.69 271.87C429.12 271.95 429.43 272.34 429.39 272.81C429.35 273.24 428.96 273.55 428.53 273.59L427.79 273.55C427.75 273.55 427.71 273.55 427.67 273.55L320.93 255.26L235.1 285.97C235.06 285.97 234.99 286.01 234.95 286.01L194.42 292.47C194.38 292.51 194.34 292.51 194.3 292.51ZM173.2 288.52L194.3 290.79L234.63 284.33L320.62 253.58C320.77 253.54 320.89 253.5 321.05 253.54L417.14 269.99C391.18 258.59 360.83 224.94 338.32 181.46C315.96 138.3 305.97 94.46 311.46 66.77L270.03 153.73C269.95 153.85 269.87 153.97 269.76 154.04L196.1 206.65L167.52 236.3L156.25 256.28C156.25 256.32 156.21 256.36 156.21 256.36C154.17 259.53 155.54 267.37 159.5 275C163.37 282.49 168.97 288.13 172.81 288.4C172.96 288.4 173.08 288.44 173.2 288.52Z" fill="#000000" fill-opacity="1.000000" fill-rule="nonzero"/>
	<path d="M269.36 153.06L315.84 55.33L315.88 55.33C304.33 80.09 312.75 130.27 339.02 181.03C365.37 231.88 401.63 267.79 428.57 272.73L427.82 272.69L321.05 254.4L318.58 253.97C306.17 251.77 289.61 235.64 277.74 212.6C265.56 188.98 263.41 165.44 268.81 154.24L269.36 153.06Z" fill="#FFFFFF" fill-opacity="1.000000" fill-rule="nonzero"/>
	<path d="M428.57 273.59L427.78 273.55C427.75 273.55 427.71 273.55 427.67 273.55L320.89 255.26L318.43 254.83C305.31 252.52 288.67 235.71 276.96 213.03C263.68 187.26 263.02 164.31 268.03 153.89L268.62 152.71L315.1 55.02C315.21 54.82 315.37 54.67 315.6 54.59C315.84 54.51 316.07 54.51 316.27 54.63C316.7 54.82 316.9 55.33 316.7 55.76C304.92 81.03 314.24 131.25 339.84 180.68C365.49 230.19 401.24 266.85 428.77 271.91C429.19 271.99 429.51 272.38 429.47 272.85C429.35 273.24 429 273.59 428.57 273.59ZM311.38 66.77L270.15 153.46L269.56 154.63C264.59 164.97 266.03 188.08 278.49 212.21C289.96 234.46 306.13 250.91 318.74 253.11L321.2 253.54L417.1 269.99C391.14 258.59 360.79 224.94 338.28 181.46C315.92 138.3 305.93 94.46 311.38 66.77Z" fill="#000000" fill-opacity="1.000000" fill-rule="nonzero"/>
	<path d="M193.13 292.4C193.09 292.4 193.05 292.4 193.05 292.4L172.53 290.2C172.42 290.2 172.3 290.16 172.18 290.08C167.72 289.38 162.08 283.74 157.97 275.83C153.62 267.44 152.33 259.29 154.72 255.46L154.76 255.34L166.03 235.36C166.27 234.93 166.78 234.81 167.21 235.05C167.64 235.28 167.76 235.79 167.52 236.22L156.24 256.28C156.24 256.32 156.2 256.36 156.2 256.36C154.17 259.53 155.54 267.37 159.49 275C163.37 282.49 168.97 288.13 172.81 288.4C172.93 288.4 173.08 288.44 173.16 288.52L193.21 290.67C193.68 290.71 194.03 291.14 193.95 291.61C193.91 292.04 193.56 292.4 193.13 292.4Z" fill="#000000" fill-opacity="1.000000" fill-rule="nonzero"/>
	<path d="M194.5 291.53C187.84 291.06 178.52 281.62 171.75 268.58C164.58 254.75 162.9 240.45 167.29 235.36L155.58 255.73L155.5 255.89C153.27 259.34 154.56 267.29 158.75 275.4C162.86 283.39 168.66 288.95 172.73 289.26L172.61 289.34L194.5 291.53Z" fill="#FFFFFF" fill-opacity="1.000000" fill-rule="nonzero"/>
	<path d="M194.5 292.4C194.46 292.4 194.46 292.4 194.42 292.4C194.27 292.4 194.07 292.36 193.91 292.36L172.53 290.2C172.42 290.2 172.3 290.16 172.18 290.08C167.72 289.38 162.08 283.74 157.97 275.83C153.62 267.44 152.33 259.3 154.72 255.46L154.76 255.34L165.05 237.4C165.45 236.38 165.95 235.48 166.58 234.74C166.85 234.38 167.36 234.34 167.72 234.58C168.07 234.85 168.19 235.32 167.95 235.72L166.5 238.18C164.19 244.41 166.46 256.63 172.42 268.07C178.88 280.57 187.69 289.69 193.99 290.51L194.46 290.55C194.93 290.59 195.28 291.02 195.24 291.49C195.28 292.04 194.93 292.4 194.5 292.4ZM173.16 288.52L188.12 290.04C182.36 286.36 176.02 278.76 170.97 268.97C166.07 259.53 163.64 249.74 164.04 242.69L156.24 256.28C156.24 256.32 156.2 256.36 156.2 256.36C154.17 259.53 155.54 267.37 159.49 275C163.37 282.49 168.97 288.13 172.81 288.4C172.93 288.4 173.08 288.44 173.16 288.52Z" fill="#000000" fill-opacity="1.000000" fill-rule="nonzero"/>
	<path d="M233.34 285.38L235.06 285.03C225.74 286.99 211.02 272.89 200.65 252.87C190.03 232.42 188.04 212.02 195.56 205.98L194.58 206.96L167.36 235.24C162.9 240.26 164.54 254.63 171.75 268.54C178.68 281.94 188.51 291.49 195.2 291.45L233.34 285.38Z" fill="#000000" fill-opacity="1.000000" fill-rule="nonzero"/>
	<path d="M195.17 292.35C188.04 292.35 178.13 282.76 170.97 268.97C163.68 254.87 161.84 240.14 166.7 234.7L193.4 206.96C193.87 206.34 194.42 205.79 195.01 205.32C195.36 205.04 195.87 205.08 196.18 205.4C196.5 205.75 196.5 206.26 196.18 206.57L194.66 208.18C189.21 215.46 191.92 234.11 201.43 252.48C211.69 272.3 226.02 285.89 234.79 284.25L234.91 284.21C235.38 284.13 235.81 284.4 235.93 284.87C236 285.34 235.73 285.78 235.26 285.89C235.22 285.89 235.18 285.89 235.14 285.93L233.54 286.25L233.5 286.25L195.36 292.32C195.28 292.32 195.2 292.35 195.17 292.35ZM191.13 211.82L167.99 235.87C163.68 240.73 165.64 254.91 172.53 268.19C179.27 281.19 188.78 290.59 195.17 290.63L228.84 285.27C219.76 282.05 208.56 269.95 199.9 253.3C191.68 237.44 188.51 221.3 191.13 211.82Z" fill="#000000" fill-opacity="1.000000" fill-rule="nonzero"/>
	<path d="M358.87 137.47C352.73 140.61 353.63 155.14 361.46 169.63C374.58 193.88 385.03 191.02 386.24 190.59C386.28 190.59 386.28 190.63 386.24 190.63L363.73 208.77C357.11 199.48 350.81 189.14 345.01 177.98C339.49 167.28 334.83 156.63 331.15 146.29L358.87 137.47Z" fill="#000000" fill-opacity="1.000000" fill-rule="nonzero"/>
	<path d="M363.73 209.63C363.69 209.63 363.65 209.63 363.61 209.63C363.38 209.59 363.18 209.47 363.02 209.27C356.25 199.76 349.95 189.34 344.27 178.41C338.83 167.91 334.13 157.22 330.37 146.64C330.29 146.41 330.29 146.17 330.41 145.97C330.52 145.78 330.68 145.62 330.92 145.54L358.64 136.73C359.07 136.61 359.54 136.81 359.7 137.24C359.85 137.67 359.7 138.14 359.3 138.34C357.97 139 356.99 140.33 356.41 142.29C354.49 148.44 356.84 159.33 362.28 169.32C375.08 192.98 384.95 190.28 386.01 189.88C386.4 189.73 386.87 189.92 387.07 190.28C387.26 190.63 387.18 191.14 386.87 191.41L364.28 209.43C364.12 209.55 363.93 209.63 363.73 209.63ZM332.29 146.84C336.01 157.06 340.55 167.4 345.8 177.59C351.28 188.16 357.39 198.23 363.93 207.51L383.46 191.77C379 191.57 370.58 188.24 360.71 170.03C355 159.49 352.65 148.36 354.72 141.67C355 140.8 355.31 140.06 355.7 139.35L332.29 146.84Z" fill="#000000" fill-opacity="1.000000" fill-rule="nonzero"/>
	<path d="M490.18 32.28C499.54 50.11 492.62 72.19 474.72 81.59C456.82 91 434.72 84.16 425.36 66.33C416 48.5 422.93 26.43 440.82 17.02C458.72 7.62 480.82 14.45 490.18 32.28Z" fill="#000000" fill-opacity="1.000000" fill-rule="evenodd"/>
	<path d="M441.1 41.23C442.82 38.88 445.37 37.43 448.27 37.12C450.46 36.88 452.49 37.35 454.41 38.53C455.39 39.12 456.25 39.86 457.08 40.76C457.66 39.7 458.37 38.76 459.19 37.98C460.79 36.41 462.71 35.51 464.87 35.28C467.77 34.96 470.58 35.82 472.78 37.74C474.93 39.62 476.3 42.37 476.65 45.46C477.01 48.63 476.14 51.69 473.95 55.06C471.99 58.07 469.02 61.21 465.57 64.89C464.4 66.14 463.07 67.55 461.69 69.04C461.34 69.43 460.83 69.71 460.29 69.75C459.74 69.83 459.23 69.67 458.76 69.35C457.08 68.18 455.47 67.08 454.06 66.14C449.91 63.32 446.31 60.89 443.72 58.39C440.83 55.61 439.34 52.79 438.99 49.61C438.67 46.52 439.42 43.54 441.1 41.23Z" fill="#FFFFFF" fill-opacity="1.000000" fill-rule="nonzero"/>
	<path d="M576.27 36.11C589.37 49.22 589.37 70.48 576.27 83.59C563.16 96.7 541.92 96.7 528.81 83.59C515.71 70.48 515.71 49.22 528.81 36.11C541.92 23 563.16 23 576.27 36.11Z" fill="#B9FF66" fill-opacity="1.000000" fill-rule="evenodd"/>
	<path d="M552.53 94.27C533.58 94.27 518.12 78.83 518.12 59.84C518.12 40.88 533.54 25.41 552.53 25.41C571.52 25.41 586.95 40.84 586.95 59.84C586.95 78.8 571.52 94.27 552.53 94.27ZM552.53 27.13C534.52 27.13 519.84 41.78 519.84 59.84C519.84 77.86 534.48 92.54 552.53 92.54C570.55 92.54 585.23 77.89 585.23 59.84C585.23 41.82 570.59 27.13 552.53 27.13Z" fill="#B9FF66" fill-opacity="1.000000" fill-rule="nonzero"/>
	<path d="M561.62 63.17C559.74 63.17 558.09 64.07 557 65.48L545.68 61.05C545.68 60.89 545.72 60.78 545.72 60.62C545.72 60.35 545.68 60.07 545.64 59.8L557.23 54.43C558.29 55.65 559.85 56.43 561.62 56.47C564.83 56.47 567.49 53.84 567.49 50.59C567.49 47.34 564.87 44.68 561.62 44.68C558.41 44.68 555.74 47.3 555.74 50.55C555.74 50.83 555.78 51.1 555.82 51.38L544.23 56.74C543.18 55.53 541.61 54.74 539.85 54.71C536.64 54.71 533.97 57.33 533.97 60.58C533.97 63.83 536.6 66.5 539.85 66.5C541.73 66.5 543.37 65.6 544.47 64.18L555.78 68.61C555.78 68.77 555.74 68.89 555.74 69.04C555.74 72.29 558.37 74.96 561.62 74.96C564.83 74.96 567.49 72.33 567.49 69.08C567.45 65.83 564.83 63.21 561.62 63.17Z" fill="#000000" fill-opacity="1.000000" fill-rule="nonzero"/>
	<path d="M570.68 142.99C581.29 158.28 577.43 179.32 562.06 189.99C546.69 200.66 525.64 196.92 515.04 181.63C504.43 166.35 508.29 145.31 523.66 134.64C539.03 123.97 560.08 127.71 570.68 142.99Z" fill="#000000" fill-opacity="1.000000" fill-rule="evenodd"/>
	<path d="M534.41 178.37L529.47 151.61C529.24 150.24 530.49 149.11 531.82 149.46L560.99 157.73C562.48 158.16 562.83 160.08 561.62 161.02L537.34 179.5C536.29 180.37 534.68 179.78 534.41 178.37Z" fill="#FFFFFF" fill-opacity="1.000000" fill-rule="nonzero"/>
	<path d="M560.27 248.68C569.45 267.55 561.51 290.34 542.53 299.58C523.55 308.82 500.73 301.02 491.55 282.15C482.37 263.28 490.31 240.5 509.28 231.25C528.26 222.01 551.09 229.81 560.27 248.68Z" fill="#B9FF66" fill-opacity="1.000000" fill-rule="evenodd"/>
	<path d="M525.71 304.34C521.64 304.34 517.49 303.72 513.46 302.34C503.59 299.05 495.6 292.16 490.98 282.84C486.36 273.55 485.66 263.02 488.99 253.15C495.88 232.82 518.04 221.73 538.44 228.51C548.31 231.8 556.29 238.69 560.91 248.01C565.53 257.3 566.24 267.84 562.91 277.71C557.35 294 542.04 304.34 525.71 304.34ZM526.1 228.27C510.48 228.27 495.84 238.14 490.55 253.73C487.38 263.17 488.05 273.24 492.47 282.09C496.9 290.99 504.53 297.6 513.97 300.74C533.47 307.2 554.65 296.63 561.23 277.2C564.4 267.76 563.73 257.69 559.31 248.84C554.88 239.95 547.25 233.33 537.81 230.19C533.93 228.86 529.98 228.27 526.1 228.27Z" fill="#000000" fill-opacity="1.000000" fill-rule="nonzero"/>
	<path d="M545.37 259.26C544.98 268.78 528.89 291.02 525.05 296.23C524.66 296.78 523.84 296.74 523.48 296.16C521.06 292.24 513.03 279.08 508.84 268.42C507.16 264.19 506.1 260.35 506.22 257.65C506.65 246.84 515.77 238.42 526.58 238.85C537.38 239.36 545.8 248.45 545.37 259.26Z" fill="#000000" fill-opacity="1.000000" fill-rule="nonzero"/>
	<path d="M532.13 252.14C535.63 255.64 535.63 261.32 532.13 264.82C528.62 268.32 522.95 268.32 519.44 264.82C515.94 261.32 515.94 255.64 519.44 252.14C522.95 248.63 528.62 248.63 532.13 252.14Z" fill="#B9FF66" fill-opacity="1.000000" fill-rule="evenodd"/>
</svg>
