<svg width="180.000000" height="29.000000" viewBox="0 0 180 29" fill="none" xmlns="http://www.w3.org/2000/svg" xmlns:xlink="http://www.w3.org/1999/xlink">
	<desc>
			Created with Pixso.
	</desc>
	<defs>
		<clipPath id="clip40_243">
			<rect width="29.516691" height="29.000000" transform="translate(0.000000 -0.500000)" fill="white" fill-opacity="0"/>
		</clipPath>
	</defs>
	<g clip-path="url(#clip40_243)">
		<path d="M14.75 3.95L29.18 -0.22L24.97 14L29.18 28.17L14.75 24.04L0.28 28.17L4.53 14L0.28 -0.22L14.75 3.95Z" fill="#FFFFFF" fill-opacity="1.000000" fill-rule="nonzero"/>
	</g>
	<path d="M40.1 24.47L40.1 1.91L49.22 1.91Q51.32 1.91 52.96 2.75C54.08 3.29 54.94 4.06 55.55 5.07Q56.5 6.55 56.5 8.65L56.5 9.06Q56.5 11.01 55.65 12.46Q55.59 12.57 55.52 12.67Q55.11 13.32 54.58 13.84Q53.86 14.53 52.93 14.99Q51.29 15.8 49.22 15.8L43.65 15.8L43.65 24.47L40.1 24.47ZM98.63 6.42C97.97 6.42 97.41 6.22 96.96 5.81C96.52 5.38 96.3 4.83 96.3 4.17C96.3 3.5 96.52 2.96 96.96 2.56C97.41 2.13 97.97 1.91 98.63 1.91C99.31 1.91 99.86 2.13 100.3 2.56C100.74 2.96 100.96 3.5 100.96 4.17C100.96 4.83 100.74 5.38 100.3 5.81C99.86 6.22 99.31 6.42 98.63 6.42ZM122.04 6.42C121.39 6.42 120.83 6.22 120.37 5.81Q120.13 5.58 119.98 5.29Q119.71 4.8 119.71 4.17Q119.71 3.5 120.01 3.01Q120.15 2.76 120.37 2.56C120.83 2.13 121.39 1.91 122.04 1.91C122.72 1.91 123.28 2.13 123.71 2.56C124.15 2.96 124.37 3.5 124.37 4.17C124.37 4.83 124.15 5.38 123.71 5.81C123.28 6.22 122.72 6.42 122.04 6.42ZM111.38 24.47C110.4 24.47 109.61 24.18 109.02 23.6C108.45 23.02 108.17 22.24 108.17 21.28L108.17 11.38L103.71 11.38L103.71 8.58L108.17 8.58L108.17 3.33L111.55 3.33L111.55 8.58L116.37 8.58L116.37 11.38L111.55 11.38L111.55 20.7C111.55 21.34 111.85 21.66 112.46 21.66L115.84 21.66L115.84 24.47L111.38 24.47ZM43.65 12.64L48.86 12.64Q50.61 12.64 51.7 11.79Q51.78 11.73 51.84 11.67C52.59 11.03 52.96 10.15 52.96 9.03L52.96 8.71Q52.96 7.5 52.41 6.67L52.41 6.67Q52.17 6.32 51.84 6.04Q51.78 5.98 51.7 5.92L51.7 5.92Q50.61 5.07 48.86 5.07L43.65 5.07L43.65 12.64ZM67.09 24.92C65.47 24.92 64.03 24.6 62.76 23.95C61.52 23.29 60.53 22.34 59.81 21.12Q58.73 19.28 58.73 16.77L58.73 16.28Q58.73 13.77 59.81 11.96C60.53 10.74 61.52 9.79 62.76 9.13C64.03 8.46 65.47 8.13 67.09 8.13C68.71 8.13 70.15 8.46 71.42 9.13C72.69 9.79 73.68 10.74 74.41 11.96C75.13 13.17 75.49 14.61 75.49 16.28L75.49 16.77C75.49 18.44 75.13 19.89 74.41 21.12C73.68 22.34 72.69 23.29 71.42 23.95C70.15 24.6 68.71 24.92 67.09 24.92ZM86.32 24.92Q83.24 24.92 81.2 23.56C79.85 22.66 79.01 21.3 78.71 19.47L81.86 18.73C82.03 19.61 82.33 20.31 82.74 20.83C83.16 21.34 83.67 21.71 84.28 21.92Q85.24 22.24 86.32 22.24C87.39 22.24 88.21 22.04 88.78 21.63C89.37 21.22 89.66 20.7 89.66 20.05C89.66 19.41 89.39 18.94 88.84 18.63C88.3 18.33 87.49 18.09 86.42 17.89L85.3 17.7C84.21 17.51 83.21 17.23 82.32 16.86C81.42 16.5 80.71 15.99 80.18 15.35Q80.11 15.25 80.04 15.15L80.04 15.15Q79.4 14.23 79.4 12.87C79.4 11.36 79.97 10.2 81.1 9.39C82.24 8.55 83.75 8.13 85.63 8.13C87.44 8.13 88.93 8.54 90.09 9.35C91.27 10.15 92.04 11.23 92.39 12.61L89.24 13.48C89.04 12.51 88.62 11.84 87.99 11.45C87.36 11.04 86.57 10.84 85.63 10.84Q84.25 10.84 83.46 11.35C82.94 11.67 82.68 12.14 82.68 12.74C82.68 13.38 82.93 13.85 83.43 14.16C83.96 14.46 84.66 14.68 85.53 14.83L86.68 15.03C87.84 15.22 88.9 15.49 89.86 15.83C90.82 16.17 91.58 16.67 92.12 17.31C92.69 17.96 92.98 18.82 92.98 19.89C92.98 21.48 92.37 22.72 91.17 23.6C89.97 24.48 88.35 24.92 86.32 24.92ZM173.34 24.92C171.28 24.92 169.58 24.47 168.22 23.56C166.86 22.66 166.03 21.3 165.73 19.47L168.88 18.73C169.05 19.61 169.35 20.31 169.76 20.83C170.18 21.34 170.69 21.71 171.3 21.92C171.94 22.14 172.62 22.24 173.34 22.24C174.41 22.24 175.23 22.04 175.8 21.63C176.39 21.22 176.68 20.7 176.68 20.05C176.68 19.41 176.41 18.94 175.86 18.63C175.32 18.33 174.51 18.09 173.43 17.89L172.32 17.7C171.23 17.51 170.23 17.23 169.34 16.86C168.44 16.5 167.73 15.99 167.2 15.35C166.68 14.7 166.42 13.88 166.42 12.87C166.42 11.36 166.99 10.2 168.12 9.39C169.26 8.55 170.77 8.13 172.65 8.13C174.46 8.13 175.95 8.54 177.11 9.35C178.29 10.15 179.05 11.23 179.41 12.61L176.26 13.48C176.06 12.51 175.64 11.84 175.01 11.45C174.38 11.04 173.59 10.84 172.65 10.84C171.73 10.84 171.01 11.01 170.48 11.35C169.96 11.67 169.7 12.14 169.7 12.74C169.7 13.38 169.95 13.85 170.45 14.16C170.98 14.46 171.68 14.68 172.55 14.83L173.7 15.03C174.86 15.22 175.92 15.49 176.88 15.83C177.84 16.17 178.6 16.67 179.14 17.31C179.71 17.96 180 18.82 180 19.89C180 21.48 179.39 22.72 178.19 23.6C176.99 24.48 175.37 24.92 173.34 24.92ZM96.92 24.47L96.92 8.58L100.3 8.58L100.3 24.47L96.92 24.47ZM120.34 24.47L120.34 8.58L123.71 8.58L123.71 24.47L120.34 24.47ZM132.47 24.47L127.02 8.58L130.6 8.58L134.89 22.02L135.42 22.02L139.71 8.58L143.29 8.58L137.85 24.47L132.47 24.47ZM152.77 24.76C151.54 24.76 150.45 24.49 149.49 23.95C148.52 23.41 147.77 22.65 147.22 21.66C146.68 20.67 146.4 19.49 146.4 18.12L146.4 8.58L149.78 8.58L149.78 17.89C149.78 19.27 150.13 20.29 150.83 20.95C151.53 21.6 152.5 21.92 153.75 21.92C155.13 21.92 156.23 21.47 157.06 20.57Q158.34 19.18 158.34 16.6L158.34 8.58L161.72 8.58L161.72 24.47L158.41 24.47L158.41 22.08L157.88 22.08C157.58 22.73 157.03 23.34 156.24 23.92C155.45 24.48 154.3 24.76 152.77 24.76ZM67.09 21.95C68.58 21.95 69.78 21.49 70.7 20.57Q70.92 20.35 71.1 20.11L71.1 20.11Q72.11 18.77 72.11 16.67L72.11 16.38C72.11 14.72 71.65 13.44 70.73 12.51Q70.34 12.11 69.88 11.82L69.88 11.82Q68.71 11.09 67.09 11.09C65.63 11.09 64.42 11.57 63.48 12.51Q63.32 12.68 63.17 12.87Q62.11 14.2 62.11 16.38L62.11 16.67Q62.11 18.83 63.15 20.19Q63.31 20.39 63.48 20.57C64.42 21.49 65.63 21.95 67.09 21.95Z" fill="#FFFFFF" fill-opacity="1.000000" fill-rule="evenodd"/>
</svg>
