<svg width="146.000000" height="48.000000" viewBox="0 0 146 48" fill="none" xmlns="http://www.w3.org/2000/svg" xmlns:xlink="http://www.w3.org/1999/xlink">
	<desc>
			Created with Pixso.
	</desc>
	<defs>
		<clipPath id="clip333_1361">
			<rect width="145.550507" height="48.000000" transform="translate(-0.175781 0.000000)" fill="white" fill-opacity="0"/>
		</clipPath>
	</defs>
	<rect width="145.550507" height="48.000000" transform="translate(-0.175781 0.000000)" fill="#FFFFFF" fill-opacity="0"/>
	<g clip-path="url(#clip333_1361)">
		<path d="M23.79 6.08L2.17 7.47C0.44 7.61 -0.18 8.59 -0.18 9.81L-0.18 30.71C-0.18 31.64 0.21 32.45 1.11 33.52L6.21 39.36C7.04 40.3 7.79 40.5 9.4 40.43L34.48 39.08C36.6 38.95 37.19 38.08 37.19 36.61L37.19 13.1C37.19 12.3 36.81 12.1 35.67 11.36L28.78 7.08C27.13 6.01 26.43 5.87 23.79 6.08ZM9.92 12.71C7.88 12.83 7.43 12.86 6.26 12.03L3.31 9.97C3 9.72 3.16 9.37 3.91 9.3L24.67 7.95C26.4 7.82 27.33 8.37 28.01 8.82L31.58 11.09C31.73 11.14 32.12 11.55 31.66 11.55L10.2 12.69C10.1 12.7 10.01 12.7 9.92 12.71ZM106.32 13.69C106.32 14.9 105.19 15.89 103.81 15.89C102.43 15.89 101.3 14.9 101.3 13.69C101.3 12.44 102.43 11.45 103.81 11.45C105.19 11.45 106.32 12.44 106.32 13.69ZM50.52 20.21L50.52 34.77L46.34 34.77L46.34 13.4L50.1 13.4L62.06 27.91L62.35 27.91L62.35 13.4L66.53 13.4L66.53 34.77L62.77 34.77L50.81 20.21L50.52 20.21ZM7.56 36.4L7.56 16.45C7.56 15.58 7.87 15.16 8.77 15.09L33.41 13.81C34.24 13.74 34.63 14.23 34.63 15.09L34.63 34.92C34.63 35.79 34.48 36.52 33.1 36.59L9.53 37.8C8.15 37.87 7.56 37.48 7.56 36.4ZM91.06 18.68L91.06 14.61L95.24 14.61L95.24 18.68L99.21 18.68L99.21 21.61L95.24 21.61L95.24 29.56C95.24 31.18 96.04 31.87 97.79 31.87C98.38 31.87 98.71 31.84 99.21 31.8L99.21 34.66C98.59 34.77 97.79 34.84 97 34.84C92.74 34.84 91.06 33.6 91.06 30.44L91.06 21.61L88.14 21.61L88.14 18.68L91.06 18.68ZM30.16 18.8C30.83 18.73 30.98 18.12 30.83 17.52L25.62 17.77C24.87 17.84 24.25 18.39 24.41 19.12L26.38 19.33L26.38 28.55L18.64 18.12L13.02 18.46C11.96 18.53 11.57 19.4 11.73 19.99L13.61 20.13L13.61 33.31L12.24 33.66C11.73 33.8 11.57 34.46 11.73 34.73L16.95 34.46C18.84 34.46 18.84 33.25 18.84 33.25L16.49 32.79L16.49 22.81L23.92 33.13C24.82 34.14 25.13 34.48 26.35 34.48C27.13 34.48 28.03 34.21 29.01 33.75L29.01 19.01L30.16 18.8ZM87.26 26.67C87.26 31.95 83.87 35.1 78.36 35.1C72.84 35.1 69.5 31.95 69.45 26.67C69.45 21.42 72.88 18.24 78.36 18.24C83.87 18.24 87.26 21.42 87.26 26.67ZM126.26 26.67C126.26 31.95 122.87 35.1 117.35 35.1C111.79 35.1 108.45 31.95 108.45 26.67C108.45 21.42 111.88 18.24 117.35 18.24C122.87 18.24 126.26 21.42 126.26 26.67ZM132.9 34.77L128.72 34.77C128.72 34.77 128.72 18.56 128.68 18.56L132.74 18.56L132.74 21.17L133.03 21.17C133.91 19.33 135.75 18.24 138.5 18.24C142.6 18.24 144.86 20.4 144.86 24.28L144.86 34.77L140.68 34.77L140.68 25.16C140.68 22.71 139.51 21.46 136.96 21.46C134.49 21.46 132.9 22.96 132.9 25.35L132.9 34.77ZM105.9 34.77L101.72 34.77L101.72 18.56L105.9 18.56L105.9 34.77ZM73.76 26.67C73.76 30.08 75.43 32.02 78.36 32.02C81.28 32.02 82.95 30.08 82.95 26.67C82.95 23.29 81.28 21.31 78.36 21.31C75.43 21.31 73.76 23.29 73.76 26.67ZM112.76 26.67C112.76 30.08 114.43 32.02 117.35 32.02C120.24 32.02 121.91 30.08 121.95 26.67C121.95 23.29 120.24 21.31 117.35 21.31C114.43 21.31 112.76 23.29 112.76 26.67Z" fill="#000000" fill-opacity="1.000000" fill-rule="evenodd"/>
	</g>
</svg>
